<?xml version="1.0" encoding="UTF-8" standalone="no"?>
<!-- Created with Inkscape (http://www.inkscape.org/) -->

<svg
   xmlns:dc="http://purl.org/dc/elements/1.1/"
   xmlns:cc="http://creativecommons.org/ns#"
   xmlns:rdf="http://www.w3.org/1999/02/22-rdf-syntax-ns#"
   xmlns:svg="http://www.w3.org/2000/svg"
   xmlns="http://www.w3.org/2000/svg"
   xmlns:sodipodi="http://sodipodi.sourceforge.net/DTD/sodipodi-0.dtd"
   xmlns:inkscape="http://www.inkscape.org/namespaces/inkscape"
   width="97"
   height="25"
   id="svg13833"
   version="1.1"
   inkscape:version="0.48.4 r9939"
   sodipodi:docname="umil-logo.svg">
  <defs
     id="defs13835" />
  <sodipodi:namedview
     id="base"
     pagecolor="#ffffff"
     bordercolor="#666666"
     borderopacity="1.0"
     inkscape:pageopacity="0.0"
     inkscape:pageshadow="2"
     inkscape:zoom="4.9900938"
     inkscape:cx="14.605268"
     inkscape:cy="4.8474739"
     inkscape:document-units="px"
     inkscape:current-layer="layer1"
     showgrid="false"
     inkscape:window-width="1317"
     inkscape:window-height="744"
     inkscape:window-x="49"
     inkscape:window-y="24"
     inkscape:window-maximized="1"
     inkscape:snap-bbox="true"
     inkscape:bbox-nodes="true" />
  <metadata
     id="metadata13838">
    <rdf:RDF>
      <cc:Work
         rdf:about="">
        <dc:format>image/svg+xml</dc:format>
        <dc:type
           rdf:resource="http://purl.org/dc/dcmitype/StillImage" />
        <dc:title></dc:title>
      </cc:Work>
    </rdf:RDF>
  </metadata>
  <g
     inkscape:label="Layer 1"
     inkscape:groupmode="layer"
     id="layer1"
     transform="translate(0,-1027.3622)">
    <g
       style="font-size:28.68284225px;font-style:normal;font-variant:normal;font-weight:bold;font-stretch:normal;line-height:125%;letter-spacing:0px;word-spacing:0px;fill:#0eb89d;fill-opacity:1;stroke:none;font-family:luna;-inkscape-font-specification:luna Bold"
       id="text3823"
       transform="matrix(0.98729161,0,0,0.98729161,-205.17794,652.59682)">
      <path
         d="m 253.31966,404.0846 c 0.056,0.56021 -0.2101,0.83565 -0.7983,0.82632 -0.5789,-10e-6 -0.89636,-0.27545 -0.95236,-0.82632 -0.23344,-2.29687 -0.47153,-4.58906 -0.71427,-6.87659 -0.24278,-2.29687 -0.51355,-4.59373 -0.81231,-6.89061 -0.13073,0.78431 -0.27078,1.5686 -0.42015,2.35289 -0.28013,1.30717 -0.6396,2.62366 -1.07841,3.94949 -0.43885,1.3165 -1.07376,2.50228 -1.90472,3.55735 -0.70028,0.887 -1.59662,1.52657 -2.68902,1.91872 -1.09242,0.39215 -2.16616,0.28944 -3.22122,-0.30811 -1.25114,-0.71894 -2.28753,-1.73199 -3.10917,-3.03915 -0.82165,-1.3165 -1.54059,-2.59565 -2.15682,-3.83745 -0.66292,-1.31649 -1.27915,-2.65166 -1.8487,-4.00552 -0.56021,-1.36317 -1.17644,-2.70301 -1.84869,-4.01952 -0.2521,-0.50417 -0.13072,-0.90099 0.36413,-1.19045 0.50419,-0.29876 0.887,-0.19606 1.14844,0.30812 0.54153,1.06441 1.04572,2.15216 1.51257,3.26323 0.46684,1.1111 0.96169,2.21285 1.48456,3.30525 0.34546,0.74696 0.70493,1.48924 1.07841,2.22684 0.3828,0.72828 0.79829,1.44255 1.24647,2.14281 0.33612,0.55088 0.70959,1.10642 1.12042,1.66663 0.42015,0.55088 0.901,1.00839 1.44255,1.37252 0.92434,0.64425 1.802,0.73761 2.63299,0.28011 0.83097,-0.44817 1.50322,-1.09241 2.01677,-1.93273 0.70025,-1.17644 1.22311,-2.44159 1.56859,-3.79544 0.35478,-1.36317 0.64423,-2.71235 0.86833,-4.04753 0.19605,-1.17643 0.35011,-2.35287 0.46217,-3.52933 0.12136,-1.17643 0.22407,-2.35287 0.30812,-3.52933 0.028,-0.46683 0.29876,-0.7516 0.8123,-0.85433 0.52285,-0.10269 0.8263,0.10273 0.91035,0.61624 0.57886,3.47332 1.06438,6.95597 1.45655,10.44795 0.39213,3.48265 0.7656,6.96529 1.12042,10.44794"
         style="fill:#0eb89d;fill-opacity:1;-inkscape-font-specification:luna Bold"
         id="path13851"
         inkscape:connector-curvature="0" />
      <path
         d="m 256.5969,404.0706 c 0,0.56021 -0.29411,0.84031 -0.88233,0.84032 -0.57889,-10e-6 -0.86833,-0.28011 -0.86833,-0.84032 0,-2.12881 0.0887,-4.27162 0.2661,-6.42843 0.1774,-2.15681 0.49018,-4.28095 0.93835,-6.37241 0.21475,-1.01771 0.50886,-2.10545 0.88234,-3.26323 0.37347,-1.15776 1.00371,-2.07744 1.89071,-2.75905 0.87766,-0.67223 1.71798,-0.7516 2.52096,-0.23809 0.8123,0.51355 1.43786,1.16713 1.8767,1.96075 0.67225,1.23247 1.19511,2.53963 1.5686,3.92148 0.3828,1.38186 0.71893,2.74971 1.00838,4.10355 0.009,0.0934 0.0233,0.18674 0.042,0.2801 0.0187,0.084 0.0373,0.16807 0.056,0.2521 0.0373,-0.19607 0.0934,-0.49952 0.16806,-0.91034 0.28009,-1.43787 0.60688,-2.87575 0.98037,-4.31363 0.3828,-1.44721 0.88232,-2.84307 1.49857,-4.18759 0.34545,-0.78428 0.81696,-1.61526 1.41453,-2.49294 0.60688,-0.88699 1.38651,-1.40051 2.33889,-1.54058 1.1204,-0.15871 2.03074,0.18208 2.73103,1.02238 0.70024,0.84034 1.21844,1.718 1.55459,2.633 0.53217,1.47524 0.91032,3.00181 1.13442,4.57973 0.22407,1.5686 0.4108,3.12319 0.56022,4.66376 0.13069,1.43788 0.23339,2.87576 0.30811,4.31363 0.084,1.42854 0.17738,2.86642 0.28011,4.31363 0.028,0.56021 -0.25212,0.84032 -0.84032,0.84032 -0.57891,0 -0.88702,-0.28011 -0.92435,-0.84032 -0.16808,-2.5583 -0.32681,-5.1306 -0.47618,-7.71691 -0.14007,-2.58631 -0.51822,-5.13527 -1.13443,-7.64689 -0.14007,-0.57888 -0.30347,-1.16243 -0.49018,-1.75066 -0.18676,-0.59755 -0.44352,-1.14842 -0.77029,-1.65263 -0.23344,-0.35478 -0.51355,-0.63489 -0.84032,-0.84032 -0.27079,-0.14937 -0.50888,-0.2194 -0.71427,-0.21008 -2e-5,2e-5 -0.042,0.009 -0.12605,0.028 -0.0747,0.0187 -0.15874,0.042 -0.25209,0.07 0.0467,-0.0187 0.009,0.005 -0.11205,0.07 -0.11206,0.0654 -0.18208,0.11206 -0.21008,0.14005 -0.24277,0.17742 -0.46219,0.4015 -0.65825,0.67225 -0.56956,0.76564 -1.07375,1.70866 -1.51257,2.82907 -0.5042,1.2885 -0.92903,2.605 -1.27448,3.9495 -0.33614,1.34451 -0.62558,2.68902 -0.86833,4.03352 -0.19608,1.09242 -0.36882,2.1895 -0.51819,3.29125 -0.1494,1.09241 -0.2241,2.19416 -0.22409,3.30524 -1e-5,0.56955 -0.28012,0.84966 -0.84032,0.84032 -0.55088,-0.009 -0.85433,-0.28944 -0.91034,-0.84032 -0.30813,-3.05315 -0.85433,-6.12031 -1.63862,-9.20147 -0.17741,-0.68159 -0.36881,-1.36318 -0.57422,-2.04478 -0.20541,-0.68158 -0.4435,-1.34916 -0.71427,-2.00275 -0.16807,-0.37347 -0.37815,-0.79829 -0.63023,-1.27449 -0.25211,-0.47616 -0.52287,-0.81229 -0.81231,-1.00838 -0.1494,-0.10269 -0.28011,-0.16805 -0.39215,-0.19607 -0.056,-0.009 -0.11672,1e-5 -0.18207,0.028 -0.22409,0.0654 -0.4295,0.19609 -0.61623,0.39215 -0.28945,0.31746 -0.53687,0.70028 -0.74228,1.14843 -0.19608,0.44818 -0.36414,0.88702 -0.50419,1.3165 -0.42016,1.31651 -0.73762,2.66101 -0.95236,4.03352 -0.20542,1.36319 -0.36414,2.7217 -0.47618,4.07555 -0.10271,1.10175 -0.18674,2.20349 -0.2521,3.30524 -0.056,1.10175 -0.084,2.20817 -0.084,3.31926"
         style="fill:#0eb89d;fill-opacity:1;-inkscape-font-specification:luna Bold"
         id="path13853"
         inkscape:connector-curvature="0" />
      <path
         d="m 280.50394,380.42966 0,0 c -0.0187,-0.56019 0.26143,-0.84029 0.84031,-0.84031 0.57889,2e-5 0.88234,0.28012 0.91035,0.84031 0.18673,3.94951 0.26143,7.899 0.22408,11.84848 -0.028,3.9495 0.20541,7.88498 0.70027,11.80646 0.0654,0.56021 -0.19608,0.83565 -0.7843,0.82632 -0.57889,-10e-6 -0.90101,-0.27545 -0.96636,-0.82632 -0.48552,-3.92148 -0.71427,-7.85696 -0.68626,-11.80646 0.028,-3.94948 -0.0514,-7.89897 -0.23809,-11.84848"
         style="fill:#0eb89d;fill-opacity:1;-inkscape-font-specification:luna Bold"
         id="path13855"
         inkscape:connector-curvature="0" />
      <path
         d="m 285.74192,386.04579 0,0 c 0.056,-0.55086 0.37347,-0.8263 0.95236,-0.82632 0.58822,-0.009 0.85432,0.26612 0.7983,0.82632 -0.15873,1.2885 -0.26143,2.58165 -0.30811,3.87946 -0.0374,1.29783 0.005,2.59099 0.12604,3.87947 0.11204,1.20446 0.31745,2.42759 0.61624,3.66939 0.29877,1.2418 0.80763,2.36689 1.52657,3.37527 0.89634,1.27915 1.97941,2.01676 3.24923,2.21284 1.26981,0.20541 2.5863,0.11204 3.94949,-0.28011 1.37251,-0.39215 2.71702,-0.95703 4.03353,-1.69464 1.31648,-0.72827 2.46958,-1.38185 3.45931,-1.96074 0.48549,-0.2801 0.87297,-0.17273 1.16244,0.32212 0.29876,0.49486 0.20539,0.89167 -0.28011,1.19045 -1.1858,0.70027 -2.52564,1.43788 -4.01952,2.21284 -1.48457,0.78429 -2.99248,1.35851 -4.52371,1.72265 -1.52192,0.37347 -3.00181,0.42015 -4.43968,0.14005 -1.43788,-0.28011 -2.70302,-1.12976 -3.79543,-2.54896 -0.84032,-1.10175 -1.45189,-2.32488 -1.8347,-3.66939 -0.38281,-1.35384 -0.64424,-2.70768 -0.78429,-4.06153 -0.14006,-1.39119 -0.20074,-2.78705 -0.18207,-4.18759 0.028,-1.40985 0.12605,-2.81038 0.29411,-4.20158"
         style="fill:#0eb89d;fill-opacity:1;-inkscape-font-specification:luna Bold"
         id="path13857"
         inkscape:connector-curvature="0" />
    </g>
    <g
       id="g3778"
       transform="matrix(-0.70733964,0,0,0.70733964,-0.547281,304.12093)">
      <path
         inkscape:connector-curvature="0"
         id="rect2997"
         d="m -19.252815,1022.4809 -11.4375,11.4375 0,12.5 11.4375,11.4062 17.6562498,-17.6562 -17.6562498,-17.6875 z"
         style="fill:#0eb89d;fill-opacity:0.78823529;stroke:none" />
      <path
         inkscape:connector-curvature="0"
         style="fill:#f2f2f2;fill-opacity:1;stroke:none"
         d="m -30.690315,1033.9028 6.25,6.25 -6.25,6.25 0,-12.5 z"
         id="path3775" />
    </g>
  </g>
</svg>
